<?xml version="1.0" standalone="no"?>
<!DOCTYPE svg PUBLIC "-//W3C//DTD SVG 20010904//EN"
 "http://www.w3.org/TR/2001/REC-SVG-20010904/DTD/svg10.dtd">
<svg version="1.0" xmlns="http://www.w3.org/2000/svg"
 width="7094.000000pt" height="7094.000000pt" viewBox="0 0 7094.000000 7094.000000"
 preserveAspectRatio="xMidYMid meet">

<g transform="translate(0.000000,7094.000000) scale(0.100000,-0.100000)"
fill="#000000" stroke="none">
<path d="M36170 63970 c-918 -33 -1828 -216 -2680 -542 -597 -227 -1224 -553
-1721 -893 l-106 -73 -146 43 c-293 88 -629 150 -942 176 -191 15 -713 6 -885
-15 -925 -117 -1731 -466 -2435 -1055 -116 -97 -439 -420 -536 -536 -609 -728
-960 -1560 -1066 -2525 -15 -141 -17 -390 -20 -2706 l-4 -2552 -122 -70 c-314
-181 -558 -372 -822 -643 -560 -575 -908 -1295 -1016 -2104 -52 -392 -29
-1077 57 -1660 174 -1183 619 -2248 1262 -3025 117 -140 373 -398 504 -506
367 -304 773 -517 1197 -630 34 -9 34 -10 126 -259 614 -1661 1413 -3099 2381
-4285 604 -741 1268 -1369 1963 -1860 l163 -115 -5 -395 c-4 -286 -10 -425
-21 -505 -53 -369 -147 -675 -302 -985 -302 -603 -789 -1091 -1389 -1390 -77
-38 -858 -366 -1735 -729 -877 -362 -2254 -932 -3060 -1266 -806 -334 -1475
-611 -1486 -615 -12 -5 39 51 113 123 1003 978 1404 2398 1061 3761 -278 1109
-1032 2040 -2061 2544 -1089 534 -2361 533 -3452 -4 -1019 -500 -1771 -1429
-2050 -2531 -28 -108 -61 -285 -91 -480 l-5 -32 -152 101 c-233 154 -333 191
-522 191 -221 0 -412 -82 -549 -235 -74 -82 -2192 -3253 -2233 -3344 -113
-246 -88 -533 67 -751 26 -37 65 -85 86 -105 22 -20 278 -197 569 -393 292
-196 529 -361 527 -367 -2 -6 -836 -1492 -1854 -3302 -1018 -1810 -1861 -3316
-1874 -3346 -87 -216 -66 -472 57 -676 69 -114 126 -164 409 -355 157 -107
266 -187 263 -193 -4 -6 -151 -226 -327 -488 l-320 -478 -1934 0 c-2154 0
-1998 5 -2157 -70 -206 -96 -349 -271 -405 -495 -20 -80 -20 -114 -18 -7220
l3 -7140 28 -80 c85 -241 269 -417 513 -487 l79 -23 28175 0 c27256 0 28177 1
28239 18 261 74 440 244 529 502 l27 80 0 7150 c0 6888 -1 7152 -18 7215 -75
267 -274 461 -541 530 -78 20 -105 20 -2018 20 l-1938 0 -318 478 c-175 262
-321 482 -325 489 -5 8 78 70 249 184 150 100 280 195 313 228 220 220 281
585 143 857 -16 33 -858 1532 -1871 3332 -1012 1800 -1841 3275 -1841 3277 0
3 224 154 498 336 273 183 525 354 559 381 72 57 141 145 190 242 96 190 100
445 10 648 -23 51 -2135 3226 -2210 3322 -47 59 -151 141 -231 180 -110 54
-212 78 -341 78 -192 2 -288 -33 -523 -190 -83 -56 -153 -102 -155 -102 -3 0
-7 30 -11 66 -18 176 -85 477 -152 685 -264 819 -809 1546 -1519 2025 -1344
907 -3103 894 -4433 -33 -262 -182 -589 -484 -780 -721 -477 -589 -758 -1251
-859 -2027 -28 -214 -25 -721 4 -940 124 -904 502 -1668 1143 -2304 74 -74
128 -132 120 -129 -8 3 -620 256 -1360 563 -740 306 -2127 880 -3082 1276
-955 395 -1783 741 -1840 770 -481 241 -890 605 -1193 1059 -258 387 -411 785
-487 1265 -18 111 -22 189 -25 541 l-5 411 98 68 c1423 993 2670 2505 3623
4395 324 642 581 1240 831 1932 40 111 44 117 74 124 17 3 81 22 141 41 1060
337 1941 1295 2459 2675 262 699 409 1456 447 2313 26 590 -31 1038 -192 1511
-186 546 -476 1012 -889 1425 -245 246 -514 452 -802 614 l-107 60 -4 1390
c-4 1466 -4 1454 -52 1860 -336 2821 -2062 5274 -4604 6544 -1096 548 -2239
837 -3491 881 -286 10 -277 10 -580 0z m900 -1515 c873 -81 1661 -298 2419
-666 2177 -1057 3647 -3162 3886 -5566 30 -304 36 -611 33 -1643 l-3 -1025
-2175 0 c-2237 0 -2298 1 -2770 41 -2460 206 -4776 1131 -6695 2673 -314 252
-524 438 -895 791 -114 108 -231 210 -263 229 -31 18 -96 47 -144 65 -84 29
-95 31 -243 31 -144 -1 -161 -3 -235 -28 -238 -83 -418 -270 -485 -507 -17
-59 -23 -121 -30 -286 -5 -116 -19 -276 -30 -355 -96 -670 -396 -1266 -880
-1749 -361 -362 -805 -629 -1284 -774 -64 -20 -124 -36 -132 -36 -13 0 -14
293 -11 2373 l3 2372 22 137 c47 299 135 601 245 843 328 724 944 1314 1673
1603 753 299 1539 295 2309 -13 196 -79 262 -95 390 -95 202 0 317 46 545 215
1128 837 2369 1296 3750 1385 195 12 804 4 1000 -15z m-6235 -7366 c139 -113
504 -387 665 -501 1774 -1252 3819 -2070 5959 -2383 371 -54 690 -87 1211
-127 111 -8 895 -12 2748 -15 l2594 -4 94 -44 c633 -296 1115 -901 1248 -1567
42 -211 49 -309 43 -613 -9 -391 -42 -708 -113 -1065 -223 -1126 -734 -2039
-1379 -2463 -224 -147 -409 -213 -680 -242 -78 -8 -170 -23 -205 -35 -182 -57
-343 -189 -429 -350 -17 -32 -72 -179 -122 -326 -859 -2536 -2187 -4547 -3809
-5768 -334 -251 -665 -454 -1055 -646 -638 -314 -1217 -481 -1915 -552 -161
-16 -676 -16 -845 0 -683 66 -1292 243 -1925 558 -470 234 -815 452 -1197 757
-759 604 -1401 1319 -2018 2247 -669 1005 -1203 2118 -1650 3432 -50 147 -103
285 -124 320 -49 84 -170 206 -256 256 -105 61 -201 89 -366 107 -220 23 -386
72 -549 162 -772 428 -1369 1518 -1559 2848 -72 500 -84 1015 -31 1310 124
695 585 1300 1225 1610 l130 63 173 11 c932 60 1815 405 2560 999 181 145 501
459 644 632 248 300 451 616 614 955 70 146 169 387 195 473 7 23 15 42 18 42
3 0 51 -37 106 -81z m-9843 -17524 c451 -53 910 -249 1253 -537 482 -404 777
-943 860 -1571 39 -305 6 -682 -86 -982 -213 -692 -727 -1254 -1387 -1519
-171 -69 -428 -139 -537 -148 -26 -2 -252 146 -1368 891 -1274 852 -1337 895
-1347 930 -44 166 -75 485 -65 661 31 531 209 997 538 1405 78 96 266 283 362
361 341 273 802 463 1245 513 124 14 396 12 532 -4z m29188 -10 c749 -119
1380 -562 1754 -1231 142 -256 241 -570 277 -883 24 -214 1 -590 -49 -783
l-17 -67 -1335 -893 c-1184 -791 -1339 -892 -1369 -890 -19 1 -87 14 -150 28
-432 96 -829 309 -1144 613 -394 380 -649 895 -718 1446 -16 128 -16 422 0
545 106 835 589 1520 1331 1892 254 126 520 203 840 242 83 10 479 -3 580 -19z
m-16972 -349 c539 -175 1069 -278 1636 -317 251 -17 849 -6 1086 20 571 62
1090 181 1600 366 98 36 184 65 190 65 5 0 10 -9 10 -20 0 -11 7 -87 15 -168
77 -735 325 -1433 731 -2050 52 -78 94 -146 94 -150 0 -4 -743 -750 -1650
-1657 l-1650 -1650 -1654 1654 -1654 1654 68 101 c226 333 429 748 557 1136
96 291 176 671 203 955 6 66 13 139 16 161 l5 42 113 -43 c63 -24 190 -68 284
-99z m21890 -4464 c206 -308 332 -506 326 -512 -5 -5 -1140 -765 -2523 -1689
l-2514 -1680 -634 947 c-348 520 -632 949 -631 954 2 4 1137 765 2523 1691
l2520 1683 299 -445 c165 -245 450 -672 634 -949z m-36200 -293 c1384 -925
2519 -1683 2520 -1685 6 -5 -1261 -1894 -1271 -1894 -7 0 -5017 3339 -5040
3360 -8 7 1253 1899 1266 1900 5 0 1141 -757 2525 -1681z m15392 -1962 c0 -11
-1022 -1507 -1029 -1507 -4 0 -507 501 -1118 1113 l-1113 1112 -240 1210
c-133 666 -243 1217 -246 1226 -3 12 25 35 108 87 62 39 142 91 178 116 l65
46 1698 -1698 c933 -933 1697 -1701 1697 -1705z m5428 3350 c43 -30 122 -82
178 -116 l100 -62 -244 -1227 -243 -1227 -1112 -1113 c-612 -611 -1116 -1111
-1121 -1109 -5 2 -239 340 -521 752 l-512 750 1695 1703 c932 936 1697 1702
1699 1702 3 0 39 -24 81 -53z m-10573 -829 c3 -13 221 -1110 485 -2438 265
-1328 760 -3817 1100 -5531 341 -1713 620 -3123 620 -3132 0 -16 -81 -17
-1211 -15 l-1211 3 -1323 3046 -1322 3046 472 2127 c260 1170 475 2129 477
2131 6 5 1893 785 1900 785 4 0 10 -10 13 -22z m13213 -369 c521 -216 948
-393 950 -394 9 -7 942 -4253 938 -4269 -3 -12 -597 -1384 -1320 -3051 l-1314
-3030 -1204 -3 c-661 -1 -1208 0 -1214 2 -7 3 161 869 482 2483 271 1363 768
3862 1104 5553 336 1691 613 3081 615 3088 3 6 7 12 10 12 4 0 433 -176 953
-391z m-16822 -1116 c-3 -10 -180 -801 -393 -1758 l-388 -1740 1 -120 c1 -85
7 -140 21 -190 10 -38 580 -1362 1266 -2942 686 -1579 1247 -2874 1247 -2877
0 -9 -10128 -7 -10134 2 -7 12 361 4139 370 4155 4 6 325 416 712 909 433 552
709 895 716 891 6 -4 246 -163 532 -354 517 -343 563 -370 699 -407 93 -24
270 -21 369 7 137 38 229 93 330 196 81 82 176 221 1132 1654 574 860 1045
1566 1047 1568 6 6 2461 1022 2470 1023 5 0 6 -8 3 -17z m20719 -498 c670
-277 1219 -506 1220 -507 1 -2 469 -703 1040 -1558 571 -855 1058 -1581 1083
-1613 200 -263 608 -350 914 -196 33 17 290 183 570 370 281 187 511 339 513
337 2 -2 323 -410 714 -908 391 -498 711 -914 711 -925 0 -11 83 -942 184
-2070 101 -1127 182 -2053 179 -2057 -2 -5 -2284 -8 -5070 -8 -4819 0 -5065 1
-5060 18 2 9 565 1309 1250 2887 922 2126 1249 2890 1262 2948 13 57 16 108
13 195 -4 110 -28 223 -386 1836 -211 946 -385 1730 -389 1744 -5 21 -3 23 14
18 11 -3 568 -233 1238 -511z m-29452 -1733 c626 -418 885 -597 879 -605 -526
-674 -4112 -5240 -4127 -5256 l-23 -23 -462 308 c-254 170 -464 314 -467 320
-3 9 3049 5452 3264 5822 15 25 29 39 36 35 7 -3 412 -274 900 -601z m39495
-2328 c897 -1595 1634 -2907 1637 -2915 4 -11 -125 -103 -459 -327 -256 -172
-468 -312 -473 -312 -9 1 -4141 5262 -4148 5282 -3 8 327 234 892 610 794 529
898 595 908 580 7 -9 746 -1322 1643 -2918z m-20527 1552 c266 -390 483 -714
481 -720 -7 -22 -977 -1436 -984 -1433 -4 1 -228 325 -499 720 l-491 719 74
107 c40 59 262 384 493 723 311 455 423 613 431 604 6 -6 229 -330 495 -720z
m-2559 -1814 c227 -333 412 -609 411 -613 -5 -15 -1215 -1780 -1218 -1777 -2
2 -191 944 -419 2093 -229 1150 -418 2101 -422 2115 -3 17 203 -183 615 -594
l620 -620 413 -604z m5762 1821 c-2 -10 -191 -958 -419 -2108 -229 -1149 -417
-2094 -418 -2099 -4 -12 -7 -7 -657 943 -310 453 -563 829 -563 835 0 6 184
279 408 606 l408 595 615 623 c338 342 618 622 622 622 5 0 6 -8 4 -17z
m-4360 -3872 c113 -163 185 -230 325 -300 98 -50 196 -71 329 -71 142 0 217
17 339 77 120 58 215 145 313 288 40 58 76 107 79 109 12 7 1721 -2501 1721
-2525 -1 -13 -15 -94 -33 -179 l-32 -155 -2385 0 -2385 0 -12 50 c-7 28 -23
106 -35 175 l-24 125 860 1258 c473 691 862 1257 863 1257 1 0 36 -49 77 -109z
m-18879 -1781 c-47 -531 -89 -968 -94 -973 -4 -4 -316 -6 -695 -5 l-687 3 778
991 c576 734 779 986 781 970 2 -12 -36 -456 -83 -986z m39770 10 c421 -536
765 -978 765 -982 0 -5 -310 -8 -689 -8 l-689 0 -6 53 c-3 28 -42 459 -86 957
-43 498 -81 922 -84 944 -4 33 -2 37 9 25 8 -8 359 -453 780 -989z m-42513
-917 l101 -68 -143 -3 c-78 -1 -145 -1 -147 2 -4 4 78 135 85 136 1 0 48 -30
104 -67z m44703 1 c26 -36 45 -67 42 -70 -2 -2 -69 -3 -148 -2 l-144 3 100 68
c55 37 101 67 102 67 0 0 22 -30 48 -66z m4883 -7831 l2 -6263 -27310 0
-27310 0 0 6258 c0 3442 3 6262 7 6265 3 4 12292 6 27307 5 l27301 -3 3 -6262z"/>
<path d="M26330 18383 c-1487 -66 -2808 -872 -3536 -2158 -273 -484 -448
-1023 -521 -1605 -26 -208 -25 -774 0 -975 70 -535 198 -965 422 -1416 335
-672 841 -1242 1470 -1654 572 -375 1199 -599 1900 -677 99 -11 1690 -13 9215
-13 8720 0 9101 1 9240 18 581 73 1127 249 1603 518 133 75 415 264 539 361
1324 1038 1909 2758 1497 4403 -131 520 -386 1054 -710 1488 -338 452 -739
815 -1219 1105 -597 361 -1260 563 -1975 602 -159 8 -17732 12 -17925 3z
m18110 -1520 c69 -12 172 -33 230 -47 1002 -238 1799 -1030 2044 -2028 59
-241 70 -341 71 -648 0 -318 -10 -414 -70 -660 -49 -199 -106 -354 -205 -555
-140 -286 -309 -522 -536 -749 -440 -438 -1003 -709 -1634 -788 -155 -19
-17984 -19 -18140 0 -640 80 -1200 350 -1646 796 -445 446 -714 1000 -795
1641 -19 146 -16 493 5 645 84 617 334 1138 754 1571 463 478 1039 762 1692
834 92 10 1900 12 9110 11 l8995 -2 125 -21z"/>
</g>
</svg>
